<svg id="visual" viewBox="0 0 900 600" width="900" height="600" xmlns="http://www.w3.org/2000/svg" xmlns:xlink="http://www.w3.org/1999/xlink" version="1.1"><path d="M0 420L21.5 418.8C43 417.7 86 415.3 128.8 411.2C171.7 407 214.3 401 257.2 394.5C300 388 343 381 385.8 374.3C428.7 367.7 471.3 361.3 514.2 359.3C557 357.3 600 359.7 642.8 363.8C685.7 368 728.3 374 771.2 375.3C814 376.7 857 373.3 878.5 371.7L900 370L900 601L878.5 601C857 601 814 601 771.2 601C728.3 601 685.7 601 642.8 601C600 601 557 601 514.2 601C471.3 601 428.7 601 385.8 601C343 601 300 601 257.2 601C214.3 601 171.7 601 128.8 601C86 601 43 601 21.5 601L0 601Z" fill="#425a9d"></path><path d="M0 388L21.5 387.7C43 387.3 86 386.7 128.8 385C171.7 383.3 214.3 380.7 257.2 378C300 375.3 343 372.7 385.8 378.7C428.7 384.7 471.3 399.3 514.2 410.5C557 421.7 600 429.3 642.8 427.3C685.7 425.3 728.3 413.7 771.2 404C814 394.3 857 386.7 878.5 382.8L900 379L900 601L878.5 601C857 601 814 601 771.2 601C728.3 601 685.7 601 642.8 601C600 601 557 601 514.2 601C471.3 601 428.7 601 385.8 601C343 601 300 601 257.2 601C214.3 601 171.7 601 128.8 601C86 601 43 601 21.5 601L0 601Z" fill="#354f90"></path><path d="M0 456L21.5 448.8C43 441.7 86 427.3 128.8 424.7C171.7 422 214.3 431 257.2 429.8C300 428.7 343 417.3 385.8 412.8C428.7 408.3 471.3 410.7 514.2 420C557 429.3 600 445.7 642.8 451.2C685.7 456.7 728.3 451.3 771.2 443.3C814 435.3 857 424.7 878.5 419.3L900 414L900 601L878.5 601C857 601 814 601 771.2 601C728.3 601 685.7 601 642.8 601C600 601 557 601 514.2 601C471.3 601 428.7 601 385.8 601C343 601 300 601 257.2 601C214.3 601 171.7 601 128.8 601C86 601 43 601 21.5 601L0 601Z" fill="#274383"></path><path d="M0 458L21.5 463C43 468 86 478 128.8 482.2C171.7 486.3 214.3 484.7 257.2 477.5C300 470.3 343 457.7 385.8 458.8C428.7 460 471.3 475 514.2 479.5C557 484 600 478 642.8 468C685.7 458 728.3 444 771.2 442.5C814 441 857 452 878.5 457.5L900 463L900 601L878.5 601C857 601 814 601 771.2 601C728.3 601 685.7 601 642.8 601C600 601 557 601 514.2 601C471.3 601 428.7 601 385.8 601C343 601 300 601 257.2 601C214.3 601 171.7 601 128.8 601C86 601 43 601 21.5 601L0 601Z" fill="#173876"></path><path d="M0 494L21.5 495.5C43 497 86 500 128.8 495.8C171.7 491.7 214.3 480.3 257.2 475C300 469.7 343 470.3 385.8 469C428.7 467.7 471.3 464.3 514.2 469.5C557 474.7 600 488.3 642.8 494.3C685.7 500.3 728.3 498.7 771.2 490C814 481.3 857 465.7 878.5 457.8L900 450L900 601L878.5 601C857 601 814 601 771.2 601C728.3 601 685.7 601 642.8 601C600 601 557 601 514.2 601C471.3 601 428.7 601 385.8 601C343 601 300 601 257.2 601C214.3 601 171.7 601 128.8 601C86 601 43 601 21.5 601L0 601Z" fill="#002e6a"></path><path d="M0 492L21.5 493.8C43 495.7 86 499.3 128.8 502.2C171.7 505 214.3 507 257.2 503.7C300 500.3 343 491.7 385.8 492.2C428.7 492.7 471.3 502.3 514.2 501.7C557 501 600 490 642.8 489.3C685.7 488.7 728.3 498.3 771.2 500.5C814 502.7 857 497.3 878.5 494.7L900 492L900 601L878.5 601C857 601 814 601 771.2 601C728.3 601 685.7 601 642.8 601C600 601 557 601 514.2 601C471.3 601 428.7 601 385.8 601C343 601 300 601 257.2 601C214.3 601 171.7 601 128.8 601C86 601 43 601 21.5 601L0 601Z" fill="#00245e"></path><path d="M0 512L21.5 511.3C43 510.7 86 509.3 128.8 511C171.7 512.7 214.3 517.3 257.2 516.7C300 516 343 510 385.8 513C428.7 516 471.3 528 514.2 533.2C557 538.3 600 536.7 642.8 534C685.7 531.3 728.3 527.7 771.2 523.5C814 519.3 857 514.7 878.5 512.3L900 510L900 601L878.5 601C857 601 814 601 771.2 601C728.3 601 685.7 601 642.8 601C600 601 557 601 514.2 601C471.3 601 428.7 601 385.8 601C343 601 300 601 257.2 601C214.3 601 171.7 601 128.8 601C86 601 43 601 21.5 601L0 601Z" fill="#001a51"></path><path d="M0 555L21.5 552C43 549 86 543 128.8 540.2C171.7 537.3 214.3 537.7 257.2 542.2C300 546.7 343 555.3 385.8 555.7C428.7 556 471.3 548 514.2 544.3C557 540.7 600 541.3 642.8 545.2C685.7 549 728.3 556 771.2 554.8C814 553.7 857 544.3 878.5 539.7L900 535L900 601L878.5 601C857 601 814 601 771.2 601C728.3 601 685.7 601 642.8 601C600 601 557 601 514.2 601C471.3 601 428.7 601 385.8 601C343 601 300 601 257.2 601C214.3 601 171.7 601 128.8 601C86 601 43 601 21.5 601L0 601Z" fill="#000f45"></path><path d="M0 561L21.5 561.3C43 561.7 86 562.3 128.8 564.8C171.7 567.3 214.3 571.7 257.2 574.3C300 577 343 578 385.8 575.7C428.7 573.3 471.3 567.7 514.2 564.8C557 562 600 562 642.8 563.2C685.7 564.3 728.3 566.7 771.2 567C814 567.3 857 565.7 878.5 564.8L900 564L900 601L878.5 601C857 601 814 601 771.2 601C728.3 601 685.7 601 642.8 601C600 601 557 601 514.2 601C471.3 601 428.7 601 385.8 601C343 601 300 601 257.2 601C214.3 601 171.7 601 128.8 601C86 601 43 601 21.5 601L0 601Z" fill="#000000"></path></svg>