<svg id="visual" viewBox="0 0 1366 768" width="1366" height="768" xmlns="http://www.w3.org/2000/svg" xmlns:xlink="http://www.w3.org/1999/xlink" version="1.1"><rect x="0" y="0" width="1366" height="768" fill="#04223a"></rect><path d="M0 453L14.2 440.5C28.3 428 56.7 403 85.2 405.8C113.7 408.7 142.3 439.3 170.8 437.2C199.3 435 227.7 400 256.2 387C284.7 374 313.3 383 341.8 401.5C370.3 420 398.7 448 427 454.3C455.3 460.7 483.7 445.3 512.2 432.5C540.7 419.7 569.3 409.3 597.8 410C626.3 410.7 654.7 422.3 683 419C711.3 415.7 739.7 397.3 768.2 402.5C796.7 407.7 825.3 436.3 853.8 444.5C882.3 452.7 910.7 440.3 939.2 435.2C967.7 430 996.3 432 1024.8 427.7C1053.3 423.3 1081.7 412.7 1110 414.7C1138.3 416.7 1166.7 431.3 1195.2 430.3C1223.7 429.3 1252.3 412.7 1280.8 416.8C1309.3 421 1337.7 446 1351.8 458.5L1366 471L1366 769L1351.8 769C1337.7 769 1309.3 769 1280.8 769C1252.3 769 1223.7 769 1195.2 769C1166.7 769 1138.3 769 1110 769C1081.7 769 1053.3 769 1024.8 769C996.3 769 967.7 769 939.2 769C910.7 769 882.3 769 853.8 769C825.3 769 796.7 769 768.2 769C739.7 769 711.3 769 683 769C654.7 769 626.3 769 597.8 769C569.3 769 540.7 769 512.2 769C483.7 769 455.3 769 427 769C398.7 769 370.3 769 341.8 769C313.3 769 284.7 769 256.2 769C227.7 769 199.3 769 170.8 769C142.3 769 113.7 769 85.2 769C56.7 769 28.3 769 14.2 769L0 769Z" fill="#001122"></path><path d="M0 433L14.2 443.3C28.3 453.7 56.7 474.3 85.2 474.2C113.7 474 142.3 453 170.8 445.5C199.3 438 227.7 444 256.2 445.8C284.7 447.7 313.3 445.3 341.8 447.7C370.3 450 398.7 457 427 459C455.3 461 483.7 458 512.2 463C540.7 468 569.3 481 597.8 478.8C626.3 476.7 654.7 459.3 683 456.2C711.3 453 739.7 464 768.2 471.7C796.7 479.3 825.3 483.7 853.8 477.8C882.3 472 910.7 456 939.2 455.3C967.7 454.7 996.3 469.3 1024.8 470.5C1053.3 471.7 1081.7 459.3 1110 457C1138.3 454.7 1166.7 462.3 1195.2 453.8C1223.7 445.3 1252.3 420.7 1280.8 415C1309.3 409.3 1337.7 422.7 1351.8 429.3L1366 436L1366 769L1351.8 769C1337.7 769 1309.3 769 1280.8 769C1252.3 769 1223.7 769 1195.2 769C1166.7 769 1138.3 769 1110 769C1081.7 769 1053.3 769 1024.8 769C996.3 769 967.7 769 939.2 769C910.7 769 882.3 769 853.8 769C825.3 769 796.7 769 768.2 769C739.7 769 711.3 769 683 769C654.7 769 626.3 769 597.8 769C569.3 769 540.7 769 512.2 769C483.7 769 455.3 769 427 769C398.7 769 370.3 769 341.8 769C313.3 769 284.7 769 256.2 769C227.7 769 199.3 769 170.8 769C142.3 769 113.7 769 85.2 769C56.7 769 28.3 769 14.2 769L0 769Z" fill="#001021"></path><path d="M0 525L14.2 511.7C28.3 498.3 56.7 471.7 85.2 461.7C113.7 451.7 142.3 458.3 170.8 467.8C199.3 477.3 227.7 489.7 256.2 495.7C284.7 501.7 313.3 501.3 341.8 504.3C370.3 507.3 398.7 513.7 427 502C455.3 490.3 483.7 460.7 512.2 457.8C540.7 455 569.3 479 597.8 491.2C626.3 503.3 654.7 503.7 683 492.8C711.3 482 739.7 460 768.2 456.2C796.7 452.3 825.3 466.7 853.8 476.7C882.3 486.7 910.7 492.3 939.2 486C967.7 479.7 996.3 461.3 1024.8 455.2C1053.3 449 1081.7 455 1110 455.2C1138.3 455.3 1166.7 449.7 1195.2 453.7C1223.7 457.7 1252.3 471.3 1280.8 474C1309.3 476.7 1337.7 468.3 1351.8 464.2L1366 460L1366 769L1351.8 769C1337.7 769 1309.3 769 1280.8 769C1252.3 769 1223.7 769 1195.2 769C1166.7 769 1138.3 769 1110 769C1081.7 769 1053.3 769 1024.8 769C996.3 769 967.7 769 939.2 769C910.7 769 882.3 769 853.8 769C825.3 769 796.7 769 768.2 769C739.7 769 711.3 769 683 769C654.7 769 626.3 769 597.8 769C569.3 769 540.7 769 512.2 769C483.7 769 455.3 769 427 769C398.7 769 370.3 769 341.8 769C313.3 769 284.7 769 256.2 769C227.7 769 199.3 769 170.8 769C142.3 769 113.7 769 85.2 769C56.7 769 28.3 769 14.2 769L0 769Z" fill="#000f20"></path><path d="M0 536L14.2 533C28.3 530 56.7 524 85.2 525.8C113.7 527.7 142.3 537.3 170.8 529.3C199.3 521.3 227.7 495.7 256.2 492.8C284.7 490 313.3 510 341.8 514.3C370.3 518.7 398.7 507.3 427 497.5C455.3 487.7 483.7 479.3 512.2 485.3C540.7 491.3 569.3 511.7 597.8 523.7C626.3 535.7 654.7 539.3 683 527.3C711.3 515.3 739.7 487.7 768.2 475.3C796.7 463 825.3 466 853.8 480.2C882.3 494.3 910.7 519.7 939.2 524.3C967.7 529 996.3 513 1024.8 505.3C1053.3 497.7 1081.7 498.3 1110 497.3C1138.3 496.3 1166.7 493.7 1195.2 495C1223.7 496.3 1252.3 501.7 1280.8 504C1309.3 506.3 1337.7 505.7 1351.8 505.3L1366 505L1366 769L1351.8 769C1337.7 769 1309.3 769 1280.8 769C1252.3 769 1223.7 769 1195.2 769C1166.7 769 1138.3 769 1110 769C1081.7 769 1053.3 769 1024.8 769C996.3 769 967.7 769 939.2 769C910.7 769 882.3 769 853.8 769C825.3 769 796.7 769 768.2 769C739.7 769 711.3 769 683 769C654.7 769 626.3 769 597.8 769C569.3 769 540.7 769 512.2 769C483.7 769 455.3 769 427 769C398.7 769 370.3 769 341.8 769C313.3 769 284.7 769 256.2 769C227.7 769 199.3 769 170.8 769C142.3 769 113.7 769 85.2 769C56.7 769 28.3 769 14.2 769L0 769Z" fill="#000d1f"></path><path d="M0 523L14.2 522.3C28.3 521.7 56.7 520.3 85.2 518.2C113.7 516 142.3 513 170.8 511.2C199.3 509.3 227.7 508.7 256.2 514.8C284.7 521 313.3 534 341.8 535.2C370.3 536.3 398.7 525.7 427 518.3C455.3 511 483.7 507 512.2 507.3C540.7 507.7 569.3 512.3 597.8 513.8C626.3 515.3 654.7 513.7 683 517.2C711.3 520.7 739.7 529.3 768.2 532.3C796.7 535.3 825.3 532.7 853.8 528.7C882.3 524.7 910.7 519.3 939.2 513.3C967.7 507.3 996.3 500.7 1024.8 504.5C1053.3 508.3 1081.7 522.7 1110 536.2C1138.3 549.7 1166.7 562.3 1195.2 564.3C1223.7 566.3 1252.3 557.7 1280.8 550C1309.3 542.3 1337.7 535.7 1351.8 532.3L1366 529L1366 769L1351.8 769C1337.7 769 1309.3 769 1280.8 769C1252.3 769 1223.7 769 1195.2 769C1166.7 769 1138.3 769 1110 769C1081.7 769 1053.3 769 1024.8 769C996.3 769 967.7 769 939.2 769C910.7 769 882.3 769 853.8 769C825.3 769 796.7 769 768.2 769C739.7 769 711.3 769 683 769C654.7 769 626.3 769 597.8 769C569.3 769 540.7 769 512.2 769C483.7 769 455.3 769 427 769C398.7 769 370.3 769 341.8 769C313.3 769 284.7 769 256.2 769C227.7 769 199.3 769 170.8 769C142.3 769 113.7 769 85.2 769C56.7 769 28.3 769 14.2 769L0 769Z" fill="#000c1e"></path><path d="M0 548L14.2 546.2C28.3 544.3 56.7 540.7 85.2 542C113.7 543.3 142.3 549.7 170.8 552.8C199.3 556 227.7 556 256.2 556.7C284.7 557.3 313.3 558.7 341.8 563.3C370.3 568 398.7 576 427 578.2C455.3 580.3 483.7 576.7 512.2 572.3C540.7 568 569.3 563 597.8 558.8C626.3 554.7 654.7 551.3 683 553.3C711.3 555.3 739.7 562.7 768.2 559.2C796.7 555.7 825.3 541.3 853.8 544C882.3 546.7 910.7 566.3 939.2 568.2C967.7 570 996.3 554 1024.8 556.3C1053.3 558.7 1081.7 579.3 1110 588C1138.3 596.7 1166.7 593.3 1195.2 592.8C1223.7 592.3 1252.3 594.7 1280.8 594.5C1309.3 594.3 1337.7 591.7 1351.8 590.3L1366 589L1366 769L1351.8 769C1337.7 769 1309.3 769 1280.8 769C1252.3 769 1223.7 769 1195.2 769C1166.7 769 1138.3 769 1110 769C1081.7 769 1053.3 769 1024.8 769C996.3 769 967.7 769 939.2 769C910.7 769 882.3 769 853.8 769C825.3 769 796.7 769 768.2 769C739.7 769 711.3 769 683 769C654.7 769 626.3 769 597.8 769C569.3 769 540.7 769 512.2 769C483.7 769 455.3 769 427 769C398.7 769 370.3 769 341.8 769C313.3 769 284.7 769 256.2 769C227.7 769 199.3 769 170.8 769C142.3 769 113.7 769 85.2 769C56.7 769 28.3 769 14.2 769L0 769Z" fill="#000b1d"></path><path d="M0 577L14.2 582.5C28.3 588 56.7 599 85.2 596.5C113.7 594 142.3 578 170.8 571C199.3 564 227.7 566 256.2 573.3C284.7 580.7 313.3 593.3 341.8 595.5C370.3 597.7 398.7 589.3 427 583.2C455.3 577 483.7 573 512.2 569.8C540.7 566.7 569.3 564.3 597.8 564.2C626.3 564 654.7 566 683 574C711.3 582 739.7 596 768.2 603.7C796.7 611.3 825.3 612.7 853.8 604.7C882.3 596.7 910.7 579.3 939.2 575.7C967.7 572 996.3 582 1024.8 591.7C1053.3 601.3 1081.7 610.7 1110 607.5C1138.3 604.3 1166.7 588.7 1195.2 582.8C1223.7 577 1252.3 581 1280.8 582C1309.3 583 1337.7 581 1351.8 580L1366 579L1366 769L1351.8 769C1337.7 769 1309.3 769 1280.8 769C1252.3 769 1223.7 769 1195.2 769C1166.7 769 1138.3 769 1110 769C1081.7 769 1053.3 769 1024.8 769C996.3 769 967.7 769 939.2 769C910.7 769 882.3 769 853.8 769C825.3 769 796.7 769 768.2 769C739.7 769 711.3 769 683 769C654.7 769 626.3 769 597.8 769C569.3 769 540.7 769 512.2 769C483.7 769 455.3 769 427 769C398.7 769 370.3 769 341.8 769C313.3 769 284.7 769 256.2 769C227.7 769 199.3 769 170.8 769C142.3 769 113.7 769 85.2 769C56.7 769 28.3 769 14.2 769L0 769Z" fill="#00091d"></path><path d="M0 608L14.2 608.2C28.3 608.3 56.7 608.7 85.2 607.8C113.7 607 142.3 605 170.8 609.5C199.3 614 227.7 625 256.2 623.2C284.7 621.3 313.3 606.7 341.8 600.8C370.3 595 398.7 598 427 603.5C455.3 609 483.7 617 512.2 616.8C540.7 616.7 569.3 608.3 597.8 609.3C626.3 610.3 654.7 620.7 683 620.2C711.3 619.7 739.7 608.3 768.2 609.7C796.7 611 825.3 625 853.8 628.2C882.3 631.3 910.7 623.7 939.2 619.2C967.7 614.7 996.3 613.3 1024.8 609.8C1053.3 606.3 1081.7 600.7 1110 606C1138.3 611.3 1166.7 627.7 1195.2 635C1223.7 642.3 1252.3 640.7 1280.8 632.7C1309.3 624.7 1337.7 610.3 1351.8 603.2L1366 596L1366 769L1351.8 769C1337.7 769 1309.3 769 1280.8 769C1252.3 769 1223.7 769 1195.2 769C1166.7 769 1138.3 769 1110 769C1081.7 769 1053.3 769 1024.8 769C996.3 769 967.7 769 939.2 769C910.7 769 882.3 769 853.8 769C825.3 769 796.7 769 768.2 769C739.7 769 711.3 769 683 769C654.7 769 626.3 769 597.8 769C569.3 769 540.7 769 512.2 769C483.7 769 455.3 769 427 769C398.7 769 370.3 769 341.8 769C313.3 769 284.7 769 256.2 769C227.7 769 199.3 769 170.8 769C142.3 769 113.7 769 85.2 769C56.7 769 28.3 769 14.2 769L0 769Z" fill="#00071c"></path><path d="M0 674L14.2 673.7C28.3 673.3 56.7 672.7 85.2 666.7C113.7 660.7 142.3 649.3 170.8 646.3C199.3 643.3 227.7 648.7 256.2 652.7C284.7 656.7 313.3 659.3 341.8 662.2C370.3 665 398.7 668 427 664.8C455.3 661.7 483.7 652.3 512.2 651.3C540.7 650.3 569.3 657.7 597.8 655.8C626.3 654 654.7 643 683 640.7C711.3 638.3 739.7 644.7 768.2 651.7C796.7 658.7 825.3 666.3 853.8 663.8C882.3 661.3 910.7 648.7 939.2 641C967.7 633.3 996.3 630.7 1024.8 629.5C1053.3 628.3 1081.7 628.7 1110 635C1138.3 641.3 1166.7 653.7 1195.2 657.8C1223.7 662 1252.3 658 1280.8 657C1309.3 656 1337.7 658 1351.8 659L1366 660L1366 769L1351.8 769C1337.7 769 1309.3 769 1280.8 769C1252.3 769 1223.7 769 1195.2 769C1166.7 769 1138.3 769 1110 769C1081.7 769 1053.3 769 1024.8 769C996.3 769 967.7 769 939.2 769C910.7 769 882.3 769 853.8 769C825.3 769 796.7 769 768.2 769C739.7 769 711.3 769 683 769C654.7 769 626.3 769 597.8 769C569.3 769 540.7 769 512.2 769C483.7 769 455.3 769 427 769C398.7 769 370.3 769 341.8 769C313.3 769 284.7 769 256.2 769C227.7 769 199.3 769 170.8 769C142.3 769 113.7 769 85.2 769C56.7 769 28.3 769 14.2 769L0 769Z" fill="#00051b"></path><path d="M0 681L14.2 683C28.3 685 56.7 689 85.2 686.5C113.7 684 142.3 675 170.8 670.2C199.3 665.3 227.7 664.7 256.2 669.5C284.7 674.3 313.3 684.7 341.8 687.7C370.3 690.7 398.7 686.3 427 679.5C455.3 672.7 483.7 663.3 512.2 658.8C540.7 654.3 569.3 654.7 597.8 657.3C626.3 660 654.7 665 683 667.8C711.3 670.7 739.7 671.3 768.2 669.3C796.7 667.3 825.3 662.7 853.8 667C882.3 671.3 910.7 684.7 939.2 689C967.7 693.3 996.3 688.7 1024.8 687.8C1053.3 687 1081.7 690 1110 691.5C1138.3 693 1166.7 693 1195.2 688.2C1223.7 683.3 1252.3 673.7 1280.8 671.8C1309.3 670 1337.7 676 1351.8 679L1366 682L1366 769L1351.8 769C1337.7 769 1309.3 769 1280.8 769C1252.3 769 1223.7 769 1195.2 769C1166.7 769 1138.3 769 1110 769C1081.7 769 1053.3 769 1024.8 769C996.3 769 967.7 769 939.2 769C910.7 769 882.3 769 853.8 769C825.3 769 796.7 769 768.2 769C739.7 769 711.3 769 683 769C654.7 769 626.3 769 597.8 769C569.3 769 540.7 769 512.2 769C483.7 769 455.3 769 427 769C398.7 769 370.3 769 341.8 769C313.3 769 284.7 769 256.2 769C227.7 769 199.3 769 170.8 769C142.3 769 113.7 769 85.2 769C56.7 769 28.3 769 14.2 769L0 769Z" fill="#00041a"></path><path d="M0 706L14.2 706.8C28.3 707.7 56.7 709.3 85.2 706.5C113.7 703.7 142.3 696.3 170.8 694.2C199.3 692 227.7 695 256.2 696.5C284.7 698 313.3 698 341.8 700C370.3 702 398.7 706 427 704.8C455.3 703.7 483.7 697.3 512.2 698.3C540.7 699.3 569.3 707.7 597.8 707.2C626.3 706.7 654.7 697.3 683 692.5C711.3 687.7 739.7 687.3 768.2 688.2C796.7 689 825.3 691 853.8 691.7C882.3 692.3 910.7 691.7 939.2 696.3C967.7 701 996.3 711 1024.8 710.5C1053.3 710 1081.7 699 1110 697.2C1138.3 695.3 1166.7 702.7 1195.2 704C1223.7 705.3 1252.3 700.7 1280.8 701.3C1309.3 702 1337.7 708 1351.8 711L1366 714L1366 769L1351.8 769C1337.7 769 1309.3 769 1280.8 769C1252.3 769 1223.7 769 1195.2 769C1166.7 769 1138.3 769 1110 769C1081.7 769 1053.3 769 1024.8 769C996.3 769 967.7 769 939.2 769C910.7 769 882.3 769 853.8 769C825.3 769 796.7 769 768.2 769C739.7 769 711.3 769 683 769C654.7 769 626.3 769 597.8 769C569.3 769 540.7 769 512.2 769C483.7 769 455.3 769 427 769C398.7 769 370.3 769 341.8 769C313.3 769 284.7 769 256.2 769C227.7 769 199.3 769 170.8 769C142.3 769 113.7 769 85.2 769C56.7 769 28.3 769 14.2 769L0 769Z" fill="#000219"></path><path d="M0 724L14.2 728.2C28.3 732.3 56.7 740.7 85.2 740.2C113.7 739.7 142.3 730.3 170.8 730.2C199.3 730 227.7 739 256.2 741.8C284.7 744.7 313.3 741.3 341.8 740C370.3 738.7 398.7 739.3 427 736.8C455.3 734.3 483.7 728.7 512.2 728C540.7 727.3 569.3 731.7 597.8 731.7C626.3 731.7 654.7 727.3 683 728.5C711.3 729.7 739.7 736.3 768.2 740.3C796.7 744.3 825.3 745.7 853.8 743.7C882.3 741.7 910.7 736.3 939.2 731.3C967.7 726.3 996.3 721.7 1024.8 721.8C1053.3 722 1081.7 727 1110 730.5C1138.3 734 1166.7 736 1195.2 738.2C1223.7 740.3 1252.3 742.7 1280.8 739.3C1309.3 736 1337.7 727 1351.8 722.5L1366 718L1366 769L1351.8 769C1337.7 769 1309.3 769 1280.8 769C1252.3 769 1223.7 769 1195.2 769C1166.7 769 1138.3 769 1110 769C1081.7 769 1053.3 769 1024.8 769C996.3 769 967.7 769 939.2 769C910.7 769 882.3 769 853.8 769C825.3 769 796.7 769 768.2 769C739.7 769 711.3 769 683 769C654.7 769 626.3 769 597.8 769C569.3 769 540.7 769 512.2 769C483.7 769 455.3 769 427 769C398.7 769 370.3 769 341.8 769C313.3 769 284.7 769 256.2 769C227.7 769 199.3 769 170.8 769C142.3 769 113.7 769 85.2 769C56.7 769 28.3 769 14.2 769L0 769Z" fill="#000000"></path></svg>